<?xml version="1.0" encoding="UTF-8"?>
<svg id="Layer_1" data-name="Layer 1" xmlns="http://www.w3.org/2000/svg" viewBox="0 0 1000 1000">
  <defs>
    <style>
      .cls-1 {
        fill: #fff;
      }
    </style>
  </defs>
  <g>
    <path class="cls-1" d="M238.55,442.41c-31.76,0-57.59,25.84-57.59,57.59s25.84,57.59,57.59,57.59,57.59-25.84,57.59-57.59-25.84-57.59-57.59-57.59Z"/>
    <path class="cls-1" d="M238.55,412.54c-48.3,0-87.46,39.16-87.46,87.46s39.16,87.46,87.46,87.46,87.46-39.16,87.46-87.46-39.16-87.46-87.46-87.46ZM238.55,572.46c-40.02,0-72.46-32.44-72.46-72.46s32.44-72.46,72.46-72.46,72.46,32.44,72.46,72.46-32.44,72.46-72.46,72.46Z"/>
  </g>
  <g>
    <path class="cls-1" d="M403.45,515.06l19.89-22.23c2.07-2.38,3.08-4.74,3.03-7.08-.05-2.33-.93-4.33-2.64-5.99-1.71-1.66-4.18-2.49-7.39-2.49s-5.78.65-7.7,1.94c-1.92,1.3-4.02,3.24-6.3,5.83l-22.56,25.04h-.31v-54.29c0-3.94-1.01-6.92-3.03-8.94-2.02-2.02-4.9-3.03-8.63-3.03s-6.77,1.01-8.79,3.03c-2.02,2.02-3.03,5-3.03,8.94v88.51c0,3.84,1.01,6.79,3.03,8.87,2.02,2.07,4.95,3.11,8.79,3.11,7.78,0,11.67-3.99,11.67-11.98v-22.4h.31l23.49,26.13c2.18,2.8,4.33,4.87,6.46,6.22,2.12,1.35,4.95,2.02,8.48,2.02,2.9,0,5.29-.75,7.16-2.26,1.87-1.5,2.93-3.45,3.19-5.83.26-2.38-.6-4.77-2.57-7.16l-22.54-25.99Z"/>
    <path class="cls-1" d="M493.29,480.46c-5.13-2.33-11.69-3.5-19.68-3.5-3.63,0-7.6.36-11.9,1.09-4.3.73-8.89,2.08-13.77,4.04-2.39.83-4.1,2.1-5.13,3.81-1.04,1.71-1.56,3.48-1.56,5.29s.47,3.48,1.4,4.98c.93,1.5,2.28,2.54,4.04,3.11,1.76.57,3.78.34,6.07-.7,3.94-1.56,7.54-2.67,10.81-3.34,3.27-.67,6.3-1.01,9.1-1.01,4.98,0,8.5.96,10.58,2.88,2.07,1.92,3.11,5.16,3.11,9.72v2.64h-5.6c-10.79,0-19.44.7-25.98,2.1-6.53,1.4-11.25,3.73-14.16,7-2.9,3.27-4.36,7.7-4.36,13.3,0,4.67,1.24,8.87,3.73,12.6,2.49,3.73,5.96,6.69,10.42,8.87,4.46,2.18,9.49,3.27,15.09,3.27,4.04,0,7.62-.7,10.73-2.1,3.11-1.4,5.68-3.37,7.7-5.91,1.21-1.52,2.17-3.23,2.88-5.11v.83c0,3.84.96,6.79,2.88,8.87,1.92,2.07,4.64,3.11,8.17,3.11s6.22-1.04,8.09-3.11c1.87-2.07,2.8-5.03,2.8-8.87v-34.53c0-7.57-1.3-13.77-3.89-18.59-2.59-4.82-6.46-8.4-11.59-10.73ZM484.35,533.04c-1.35,2.44-3.19,4.36-5.52,5.76-2.33,1.4-5,2.1-8.01,2.1-3.84,0-6.77-.93-8.79-2.8-2.02-1.87-3.03-4.25-3.03-7.16,0-2.38.7-4.25,2.1-5.6,1.4-1.35,3.73-2.31,7-2.88,3.27-.57,7.54-.86,12.83-.86h5.44v3.11c0,3.11-.68,5.89-2.02,8.32Z"/>
    <path class="cls-1" d="M588.75,481.78c-4.98-3.21-10.84-4.82-17.58-4.82-6.02,0-11.36,1.45-16.02,4.36-3.3,2.05-5.83,4.55-7.62,7.48v-32.99c0-3.94-1.01-6.92-3.03-8.94-2.02-2.02-4.9-3.03-8.63-3.03s-6.77,1.01-8.79,3.03c-2.02,2.02-3.03,5-3.03,8.94v88.51c0,3.84,1.01,6.79,3.03,8.87,2.02,2.07,4.9,3.11,8.63,3.11s6.58-1.04,8.56-3.11c1.97-2.07,2.96-5.03,2.96-8.87v-.45c1.76,3.24,4.31,5.96,7.7,8.15,4.72,3.06,10.14,4.59,16.26,4.59,6.64,0,12.47-1.61,17.5-4.82,5.03-3.21,8.94-7.83,11.74-13.84,2.8-6.01,4.2-13.12,4.2-21.31s-1.4-15.24-4.2-21.16c-2.8-5.91-6.69-10.47-11.67-13.69ZM578.87,529.15c-1.4,3.27-3.37,5.73-5.91,7.39-2.54,1.66-5.47,2.49-8.79,2.49-5.08,0-9.18-1.84-12.29-5.52-3.11-3.68-4.67-9.31-4.67-16.88,0-5.08.72-9.26,2.18-12.52,1.45-3.27,3.45-5.68,5.99-7.23,2.54-1.56,5.47-2.33,8.79-2.33,4.98,0,9.02,1.79,12.13,5.37,3.11,3.58,4.67,9.15,4.67,16.72,0,5.08-.7,9.26-2.1,12.52Z"/>
    <path class="cls-1" d="M659.08,510.72l-16.33-2.96c-2.49-.41-4.33-1.22-5.52-2.41-1.19-1.19-1.79-2.67-1.79-4.43,0-2.28,1.04-4.17,3.11-5.68,2.07-1.5,5.44-2.26,10.11-2.26,2.59,0,5.29.34,8.09,1.01,2.8.68,5.86,1.79,9.18,3.34,2.07.83,3.91,1.04,5.52.62,1.61-.41,2.93-1.3,3.97-2.64,1.04-1.35,1.68-2.85,1.94-4.51.26-1.66,0-3.27-.78-4.82-.78-1.56-2.1-2.8-3.97-3.73-3.63-1.87-7.42-3.21-11.36-4.04-3.94-.83-8.24-1.25-12.91-1.25-6.53,0-12.37,1.01-17.5,3.03-5.13,2.02-9.15,4.93-12.06,8.71-2.9,3.79-4.36,8.27-4.36,13.46,0,5.6,1.74,10.19,5.21,13.77,3.47,3.58,8.42,5.94,14.86,7.08l16.33,2.96c2.59.42,4.56,1.14,5.91,2.18,1.35,1.04,2.02,2.59,2.02,4.67,0,2.28-1.01,4.12-3.03,5.52-2.02,1.4-5.26,2.1-9.72,2.1-3.42,0-6.9-.36-10.42-1.09-3.53-.72-7.42-1.97-11.67-3.73-1.97-.83-3.76-1.01-5.37-.54-1.61.47-2.9,1.38-3.89,2.72-.99,1.35-1.53,2.85-1.63,4.51-.1,1.66.28,3.29,1.17,4.9.88,1.61,2.36,2.93,4.43,3.97,3.94,1.97,8.32,3.37,13.14,4.2,4.82.83,9.51,1.24,14.08,1.24,10.27,0,18.48-2.26,24.66-6.77,6.17-4.51,9.26-10.71,9.26-18.59,0-5.81-1.76-10.4-5.29-13.77-3.53-3.37-8.66-5.62-15.4-6.77Z"/>
    <path class="cls-1" d="M752.75,487.46c-3.22-3.37-7.05-5.96-11.51-7.78-4.46-1.81-9.44-2.72-14.93-2.72-7.57,0-14.34,1.69-20.3,5.06-5.96,3.37-10.6,8.04-13.92,14-3.32,5.97-4.98,12.89-4.98,20.77s1.74,15.12,5.21,21.08c3.47,5.96,8.45,10.58,14.93,13.84,6.48,3.27,14.23,4.9,23.26,4.9,4.15,0,8.42-.49,12.83-1.48,4.41-.98,8.37-2.46,11.9-4.43,2.18-1.14,3.73-2.57,4.67-4.28.93-1.71,1.32-3.45,1.17-5.21-.16-1.76-.75-3.32-1.79-4.67-1.04-1.35-2.49-2.2-4.36-2.57-1.87-.36-3.99.03-6.38,1.17-2.8,1.35-5.81,2.33-9.02,2.96-3.22.62-6.07.93-8.56.93-7.26,0-12.73-1.87-16.41-5.6-2.72-2.76-4.43-6.65-5.14-11.67h45.82c2.38,0,4.2-.49,5.44-1.48,1.24-.98,1.87-2.46,1.87-4.43,0-5.91-.83-11.28-2.49-16.1-1.66-4.82-4.1-8.92-7.31-12.29ZM717.44,495.16c2.7-1.76,5.96-2.64,9.8-2.64,3.42,0,6.3.73,8.63,2.18,2.33,1.45,4.12,3.6,5.37,6.46,1.02,2.35,1.62,5.18,1.8,8.48h-33.67c.34-2.53.96-4.82,1.85-6.84,1.45-3.32,3.52-5.86,6.22-7.62Z"/>
    <path class="cls-1" d="M845.95,491.04c-1.97-4.72-4.93-8.24-8.87-10.58-3.94-2.33-8.97-3.5-15.09-3.5s-11.38,1.38-16.1,4.12c-3.45,2.01-6.27,4.65-8.48,7.91v-33.19c0-3.94-1.01-6.92-3.03-8.94-2.02-2.02-4.9-3.03-8.63-3.03s-6.77,1.01-8.79,3.03c-2.02,2.02-3.03,5-3.03,8.94v88.51c0,3.84,1.01,6.79,3.03,8.87,2.02,2.07,4.95,3.11,8.79,3.11,7.78,0,11.67-3.99,11.67-11.98v-32.04c0-5.18,1.48-9.33,4.43-12.44s6.92-4.67,11.9-4.67c3.94,0,6.87,1.17,8.79,3.5,1.92,2.33,2.88,6.14,2.88,11.43v34.22c0,3.84,1.01,6.79,3.03,8.87,2.02,2.07,4.9,3.11,8.63,3.11s6.77-1.04,8.79-3.11c2.02-2.07,3.03-5.03,3.03-8.87v-35.31c0-7.26-.99-13.25-2.96-17.97Z"/>
  </g>
</svg>